# AST/ASF file generated using VICON BodyLanguage
# -----------------------------------------------
:version 1.10
:name VICON
:units
  mass 1.0
  length 0.45
  angle deg
:documentation
   .ast/.asf automatically generated from VICON data using
   VICON BodyBuilder and BodyLanguage model FoxedUp or BRILLIANT.MOD
:root
   order TX TY TZ RX RY RZ
   axis XYZ
   position 0 0 0  
   orientation 0 0 0 
:bonedata
  begin
     id 1 
     name lhipjoint
     direction 0.660183 -0.676772 0.325788 
     length 2.75133 
     axis 0 0 0  XYZ
  end
  begin
     id 2 
     name lfemur
     direction 0.34202 -0.939693 0  
     length 7.70317  
     axis 0 0 20  XYZ
    dof rx ry rz
    limits (-160.0 20.0)
           (-70.0 70.0)
           (-60.0 70.0)
  end
  begin
     id 3 
     name ltibia
     direction 0.342105 -0.939662 0   
     length 7.18701   
     axis 0 0 20   XYZ
    dof rx
    limits (-10.0 170.0)
  end
  begin
     id 4 
     name lfoot
     direction 0.14163 -0.389126 0.910232   
     length 2.41719   
     axis -90 7.62852e-016 20   XYZ
    dof rx rz
    limits (-45.0 90.0)
           (-70.0 20.0)
  end
  begin
     id 5 
     name ltoes
     direction 1.53533e-011 -4.21926e-011 1   
     length 1.18611   
     axis -90 7.62852e-016 20   XYZ
    dof rx
    limits (-90.0 20.0)
  end
  begin
     id 6 
     name rhipjoint
     direction -0.6658 -0.67229 0.323631   
     length 2.76968  
     axis 0 0 0  XYZ 
  end
  begin
     id 7 
     name rfemur
     direction -0.34202 -0.939693 0   
     length 7.92547   
     axis 0 0 -20   XYZ
    dof rx ry rz
    limits (-160.0 20.0)
           (-70.0 70.0)
           (-70.0 60.0)
  end
  begin
     id 8 
     name rtibia
     direction -0.342022 -0.939692 0   
     length 7.22641   
     axis 0 0 -20   XYZ
    dof rx
    limits (-10.0 170.0)
 end
 begin
     id 9 
     name rfoot
     direction -0.105675 -0.29034 0.951071   
     length 2.48149  
     axis -90 -7.62852e-016 -20   XYZ
    dof rx rz
    limits (-45.0 90.0)
           (-20.0 70.0)
  end
  begin
     id 10 
     name rtoes
     direction -1.5349e-011 -4.21859e-011 1   
     length 1.23343   
     axis -90 -7.62852e-016 -20   XYZ
    dof rx
    limits (-90.0 20.0)
  end
  begin
     id 11 
     name lowerback
     direction 0.0104173 0.993624 -0.112266   
     length 2.00527   
     axis 0 0 0   XYZ
    dof rx ry rz
    limits (-20.0 45.0)
           (-30.0 30.0)
           (-30.0 30.0)
  end
  begin
     id 12 
     name upperback
     direction 0.00733149 0.999856 -0.0152913   
     length 2.01385   
     axis 0 0 0   XYZ
    dof rx ry rz
    limits (-20.0 45.0)
           (-30.0 30.0)
           (-30.0 30.0)
  end
  begin
     id 13 
     name thorax
     direction 0.0026304 0.999318 0.036841   
     length 2.03734   
     axis 0 0 0   XYZ
    dof rx ry rz
    limits (-20.0 45.0)
           (-30.0 30.0)
           (-30.0 30.0)
  end
  begin
     id 14 
     name lowerneck
     direction 0.0293154 0.998757 0.0403082   
     length 1.65303   
     axis 0 0 0   XYZ
    dof rx ry rz
    limits (-20.0 45.0)
           (-30.0 30.0)
           (-30.0 30.0)
  end
  begin
     id 15 
     name upperneck
     direction -0.0376619 0.998184 -0.0470083   
     length 1.60926   
     axis 0 0 0   XYZ
    dof rx ry rz
    limits (-20.0 45.0)
           (-30.0 30.0)
           (-30.0 30.0)
  end
  begin
     id 16
     name head
     direction -0.0170133 0.999635 -0.0209778  
     length 1.73625  
     axis 0 0 0   XYZ
    dof rx ry rz
    limits (-20.0 45.0)
           (-30.0 30.0)
           (-30.0 30.0)
  end
  begin
     id 17 
     name lclavicle
     direction 0.919857 0.39181 -0.0186333  
     length 3.75313  
     axis 0 0 0   XYZ
    dof ry rz
    limits (-20.0 10.0)
           (0.0 20.0)
  end
  begin
     id 18 
     name lhumerus
     direction 1 -4.48988e-011 1.44029e-027   
     length 5.49313   
     axis 180 -30 -90   XYZ
    dof rx ry rz
    limits (-60.0 90.0)
           (-90.0 90.0)
           (-90.0 90.0)
  end
  begin
     id 19
     name lradius
     direction 1 -4.48924e-011 7.46281e-027   
     length 3.29037   
     axis 180 -30 -90   XYZ
    dof rx
    limits (-10.0 170.0)
  end
  begin
     id 20
     name lwrist
     direction 1 -4.48955e-011 2.19879e-026   
     length 1.64519   
     axis -1.34358e-014 90 90   XYZ
    dof ry
    limits (-180.0 0.0)
 end
  begin
     id 21 
     name lhand
     direction 1 -4.48978e-011 4.39747e-026   
     length 0.729656   
     axis -2.80598e-014 90 90   XYZ
    dof rx rz
    limits (-90.0 90.0)
           (-45.0 45.0)
  end
  begin
     id 22 
     name lfingers
     direction 1 -4.49071e-011 8.79411e-026   
     length 0.588268   
     axis -5.61193e-014 90 90   XYZ
    dof rx
    limits (0.0 90.0)
  end
  begin
     id 23
     name lthumb
     direction 0.707107 -6.34817e-011 0.707107   
     length 0.844638   
     axis -90 45 -9.86923e-015   XYZ
    dof rx rz
    limits (-45.0 45.0)
           (-45.0 45.0)
  end
  begin
     id 24 
     name rclavicle
     direction -0.919898 0.388279 0.0550233   
     length 3.7171  
     axis 0 0 0   XYZ 
    dof ry rz
    limits (-10.0 20.0)
           (-20.0 0.0)
  end
  begin
     id 25 
     name rhumerus
     direction -1 -4.48968e-011 9.98372e-028  
     length 5.23684   
     axis 180 30 90   XYZ
    dof rx ry rz
    limits (-90.0 60.0)
           (-90.0 90.0)
           (-90.0 90.0)
  end
  begin
     id 26 
     name rradius
     direction -1 -4.48956e-011 1.01023e-026   
     length 3.38251   
     axis 180 30 90   XYZ
    dof rx
    limits (-10.0 170.0)
  end
  begin
     id 27 
     name rwrist
     direction -1 -4.4892e-011 2.19886e-026   
     length 1.69126   
     axis -1.34358e-014 -90 -90   XYZ
    dof ry
    limits (-180.0 0.0)
  end
  begin
     id 28
     name rhand
     direction -1 -4.49024e-011 4.39727e-026   
     length 0.691454   
     axis -2.80598e-014 -90 -90   XYZ
    dof rx rz
    limits (-90.0 90.0)
           (-45.0 45.0)
  end
  begin
     id 29
     name rfingers
     direction -1 -4.49097e-011 8.79388e-026   
     length 0.557468   
     axis -5.61193e-014 -90 -90   XYZ
    dof rx
    limits (0.0 90.0)
  end
  begin
     id 30
     name rthumb
     direction -0.707107 -6.34938e-011 0.707107   
     length 0.800416   
     axis -90 -45 9.86923e-015   XYZ
    dof rx rz
    limits (-45.0 45.0)
           (-45.0 45.0)
  end
:hierarchy
  begin
    root lhipjoint rhipjoint lowerback
    lhipjoint lfemur
    lfemur ltibia
    ltibia lfoot
    lfoot ltoes
    rhipjoint rfemur
    rfemur rtibia
    rtibia rfoot
    rfoot rtoes
    lowerback upperback
    upperback thorax
    thorax lowerneck lclavicle rclavicle
    lowerneck upperneck
    upperneck head
    lclavicle lhumerus
    lhumerus lradius
    lradius lwrist
    lwrist lhand lthumb
    lhand lfingers
    rclavicle rhumerus
    rhumerus rradius
    rradius rwrist
    rwrist rhand rthumb
    rhand rfingers
  end

#!OML:ASF H:\BabyWalks\Project 1\Capture day 1\Session 1\baby.ASF
:FULLY-SPECIFIED
:DEGREES
270
root -8.38674 17.3877 -1.16247 132.703 -78.2909 -140.115
lowerback 6.5361 -2.22812 -1.01791
upperback 0.328668 -2.99447 4.13442
thorax -3.05005 -1.49062 5.13545
lowerneck -2.42438 -8.21217 -1.3725
upperneck 41.4809 -12.3452 -10.7239
head 13.9357 -8.12526 -5.81954
rclavicle 3.8353e-014 1.59028e-014
rhumerus -17.6546 -43.9942 -41.5355
rradius 84.3566
rwrist -61.8987
rhand 8.07843 -23.4472
rfingers 7.12502
rthumb 33.3016 -50.3833
lclavicle 3.8353e-014 1.59028e-014
lhumerus -55.493 4.58416 64.1924
lradius 81.7267
lwrist 65.9091
lhand 49.5061 19.8579
lfingers 7.12502
lthumb 69.6251 16.7531
rfemur 0.822716 -2.50967 30.243
rtibia 28.7311
rfoot -20.4842 -3.27709
rtoes 11.3334
lfemur 5.51165 -10.7942 -14.9096
ltibia 33.2074
lfoot -27.8538 37.4173
ltoes -3.64629
271
root -8.37799 17.3861 -1.17343 132.918 -78.1934 -140.526
lowerback 6.52361 -2.06366 -0.706259
upperback 0.622643 -2.7654 3.97541
thorax -2.78252 -1.38945 4.76146
lowerneck -2.24797 -7.46704 -1.02961
upperneck 42.064 -11.4186 -10.6044
head 14.2253 -7.67658 -5.81316
rclavicle -6.66301e-014 4.11484e-014
rhumerus -17.1214 -42.321 -41.6377
rradius 85.9924
rwrist -62.6196
rhand 12.268 -22.2025
rfingers 7.12502
rthumb 37.2741 -48.1956
lclavicle -6.66301e-014 4.11484e-014
lhumerus -54.2389 4.39503 64.3142
lradius 83.5167
lwrist 66.5012
lhand 49.5426 19.3003
lfingers 7.12502
lthumb 69.6494 16.1223
rfemur 1.0341 -2.42424 30.3054
rtibia 28.6773
rfoot -20.4366 -3.30003
rtoes 11.3457
lfemur 5.66639 -10.2262 -14.692
ltibia 33.2002
lfoot -27.6454 37.002
ltoes -3.90717
272
root -8.36781 17.3847 -1.18435 133.15 -78.1142 -140.954
lowerback 6.53679 -1.90223 -0.398986
upperback 0.924734 -2.54213 3.81458
thorax -2.51715 -1.28955 4.39149
lowerneck -2.05871 -6.70408 -0.655464
upperneck 42.5274 -10.4519 -10.4517
head 14.4659 -7.19689 -5.77722
rclavicle 2.2239e-014 8.94531e-015
rhumerus -16.6172 -40.4833 -41.6653
rradius 87.6798
rwrist -63.3919
rhand 16.5557 -21.1477
rfingers 7.12502
rthumb 41.3139 -45.9635
lclavicle 2.2239e-014 8.94531e-015
lhumerus -52.9198 4.18167 64.4407
lradius 85.2765
lwrist 67.0854
lhand 49.6677 18.8255
lfingers 7.12502
lthumb 69.7326 15.3952
rfemur 1.23286 -2.31289 30.3597
rtibia 28.6374
rfoot -20.3916 -3.35909
rtoes 11.3513
lfemur 5.81825 -9.69321 -14.4998
ltibia 33.1869
lfoot -27.436 36.612
ltoes -4.1555
273
root -8.3563 17.3838 -1.19532 133.41 -78.0548 -141.405
lowerback 6.57499 -1.73931 -0.113427
upperback 1.24144 -2.31995 3.65544
thorax -2.2464 -1.18873 4.03815
lowerneck -1.9066 -5.93278 -0.22074
upperneck 42.8964 -9.45083 -10.3011
head 14.6729 -6.68762 -5.73798
rclavicle -1.74806e-014 9.44227e-015
rhumerus -16.1174 -38.512 -41.6302
rradius 89.4111
rwrist -64.1217
rhand 20.8419 -20.3163
rfingers 7.12502
rthumb 45.3185 -43.6893
lclavicle -1.74806e-014 9.44227e-015
lhumerus -51.5346 3.94655 64.5757
lradius 87.0169
lwrist 67.6637
lhand 49.8603 18.4405
lfingers 7.12502
lthumb 69.8599 14.6174
rfemur 1.41465 -2.17713 30.4046
rtibia 28.6142
rfoot -20.3506 -3.45387
rtoes 11.3461
lfemur 5.96263 -9.18859 -14.332
ltibia 33.1666
lfoot -27.2195 36.2429
ltoes -4.39735
274
root -8.3434 17.3834 -1.20631 133.723 -78.0236 -141.901
lowerback 6.63376 -1.5826 0.166064
upperback 1.5554 -2.10708 3.48868
thorax -1.9863 -1.09074 3.68355
lowerneck -1.76617 -5.14388 0.250307
upperneck 43.1949 -8.40431 -10.1595
head 14.8552 -6.15032 -5.69501
rclavicle 1.26881e-014 1.38652e-014
rhumerus -15.6547 -36.3619 -41.5163
rradius 91.1936
rwrist -64.7196
rhand 25.0075 -19.7107
rfingers 7.12502
rthumb 49.168 -41.3595
lclavicle 1.26881e-014 1.38652e-014
lhumerus -50.1194 3.6779 64.6997
lradius 88.7289
lwrist 68.2353
lhand 50.1027 18.146
lfingers 7.12502
lthumb 70.0187 13.8212
rfemur 1.57334 -2.02176 30.4291
rtibia 28.6095
rfoot -20.3145 -3.58008
rtoes 11.3297
lfemur 6.09249 -8.70807 -14.1961
ltibia 33.1392
lfoot -26.9936 35.8899
ltoes -4.63278
275
root -8.32923 17.3835 -1.21744 134.051 -78.0133 -142.402
lowerback 6.71287 -1.42713 0.429802
upperback 1.87206 -1.89766 3.32287
thorax -1.73088 -0.993014 3.34119
lowerneck -1.66585 -4.34892 0.789885
upperneck 43.4363 -7.32404 -10.0572
head 15.0213 -5.58811 -5.67135
rclavicle 1.44049e-014 2.44754e-014
rhumerus -15.2132 -34.0624 -41.3347
rradius 93.0194
rwrist -65.0852
rhand 28.96 -19.3028
rfingers 7.12502
rthumb 52.7696 -38.94
lclavicle 1.44049e-014 2.44754e-014
lhumerus -48.6681 3.37623 64.8201
lradius 90.4096
lwrist 68.7642
lhand 50.3807 17.9271
lfingers 7.12502
lthumb 70.1989 13.017
rfemur 1.70899 -1.85112 30.4452
rtibia 28.6205
rfoot -20.2819 -3.73429
rtoes 11.305
lfemur 6.20327 -8.24198 -14.0744
ltibia 33.1098
lfoot -26.758 35.5408
ltoes -4.86666
276
root -8.31396 17.384 -1.22858 134.406 -78.0286 -142.917
lowerback 6.80968 -1.27633 0.683153
upperback 2.17672 -1.69493 3.15338
thorax -1.49409 -0.896924 3.00341
lowerneck -1.56852 -3.55175 1.36871
upperneck 43.6199 -6.2226 -9.97729
head 15.1664 -5.00974 -5.65414
rclavicle 4.80453e-014 -2.86747e-014
rhumerus -14.8086 -31.6109 -41.0812
rradius 94.8845
rwrist -65.1775
rhand 32.6937 -19.1012
rfingers 7.12502
rthumb 56.111 -36.4045
lclavicle 4.80453e-014 -2.86747e-014
lhumerus -47.2182 3.02774 64.928
lradius 92.0521
lwrist 69.2222
lhand 50.6867 17.7437
lfingers 7.12502
lthumb 70.3946 12.1768
rfemur 1.82067 -1.67588 30.4447
rtibia 28.6449
rfoot -20.2531 -3.90628
rtoes 11.2779
lfemur 6.28999 -7.78553 -13.9701
ltibia 33.0827
lfoot -26.5136 35.1896
ltoes -5.10054
277
root -8.29753 17.3848 -1.24007 134.731 -78.0546 -143.388
lowerback 6.92455 -1.12986 0.948956
upperback 2.46665 -1.49665 2.98182
thorax -1.27965 -0.801497 2.65857
lowerneck -1.48716 -2.7608 1.98624
upperneck 43.7585 -5.11106 -9.93081
head 15.3 -4.42147 -5.652
rclavicle -1.04323e-014 4.82053e-015
rhumerus -14.4522 -29.0168 -40.7616
rradius 96.78
rwrist -64.9993
rhand 36.1872 -19.0717
rfingers 7.12502
rthumb 59.1665 -33.6982
lclavicle -1.04323e-014 4.82053e-015
lhumerus -45.775 2.62133 65.0194
lradius 93.6497
lwrist 69.5965
lhand 51.0088 17.596
lfingers 7.12502
lthumb 70.5976 11.3233
rfemur 1.90961 -1.48331 30.4535
rtibia 28.6771
rfoot -20.2239 -4.10827
rtoes 11.2444
lfemur 6.34806 -7.33496 -13.8581
ltibia 33.0658
lfoot -26.2648 34.8292
ltoes -5.3387
278
root -8.28009 17.3858 -1.25175 135.025 -78.0906 -143.809
lowerback 7.04946 -0.990157 1.22251
upperback 2.74086 -1.30627 2.8108
thorax -1.08371 -0.708561 2.31181
lowerneck -1.40323 -1.97805 2.61148
upperneck 43.848 -4.00055 -9.8881
head 15.4183 -3.82956 -5.64623
rclavicle -1.46433e-014 -3.37934e-015
rhumerus -14.1229 -26.2864 -40.3956
rradius 98.6892
rwrist -64.5648
rhand 39.4435 -19.175
rfingers 7.12502
rthumb 61.9323 -30.7529
lclavicle -1.46433e-014 -3.37934e-015
lhumerus -44.3465 2.16037 65.09
lradius 95.1859
lwrist 69.8782
lhand 51.3497 17.4711
lfingers 7.12502
lthumb 70.8091 10.4349
rfemur 1.97382 -1.28574 30.4687
rtibia 28.7134
rfoot -20.1932 -4.32654
rtoes 11.2153
lfemur 6.37165 -6.88923 -13.7369
ltibia 33.0651
lfoot -26.016 34.4567
ltoes -5.58265
